<?xml version="1.0" encoding="utf-8"?>
<!-- Svg Vector Icons : http://www.onlinewebfonts.com/icon -->
<!DOCTYPE svg PUBLIC "-//W3C//DTD SVG 1.1//EN" "http://www.w3.org/Graphics/SVG/1.1/DTD/svg11.dtd">
<svg version="1.1" xmlns="http://www.w3.org/2000/svg" xmlns:xlink="http://www.w3.org/1999/xlink" x="0px" y="0px" viewBox="0 0 1000 1000" enable-background="new 0 0 1000 1000" xml:space="preserve">
<metadata> Svg Vector Icons : http://www.onlinewebfonts.com/icon </metadata>
<g><g><g><path d="M245.7,696.7c15,0,27.8-9.1,38.5-27.3c97.6-173,148.3-263.1,152.3-270.2l-97.2-169.4c-10.3-17.8-23.3-26.7-39.1-26.7H158.6c-9.1,0-15.4,3-19,8.9c-4.3,5.9-4.2,13.2,0.6,21.9l95.4,165.3c0.4,0.4,0.4,0.6,0,0.6L85.7,665.3c-3.9,7.5-3.9,14.6,0,21.3c3.9,6.7,10.1,10.1,18.4,10.1H245.7z"/><path d="M895.6,10H752.8c-15.4,0-28.1,8.9-37.9,26.7C512.3,396.1,407.4,582.2,400.3,594.8l200.9,368.5c9.5,17.8,22.5,26.7,39.1,26.7h141.6c8.7,0,15-3,19-8.9c3.9-6.7,3.7-14-0.6-21.9L601.2,594.8v-0.6L914,40.8c4.3-8.3,4.3-15.6,0-21.9C910.4,13,904.3,10,895.6,10z"/></g></g><g></g><g></g><g></g><g></g><g></g><g></g><g></g><g></g><g></g><g></g><g></g><g></g><g></g><g></g><g></g></g>
</svg>